<svg width="50" height="50" viewBox="0 0 50 50" fill="none" xmlns="http://www.w3.org/2000/svg">
<rect width="50" height="50" rx="5" fill="#FEBE10"/>
<path d="M25.0001 35.6667C26.6667 35.6667 28.0834 35.0833 29.2501 33.9167C30.4167 32.75 31.0001 31.3333 31.0001 29.6667C31.0001 28 30.4167 26.5833 29.2501 25.4167C28.0834 24.25 26.6667 23.6667 25.0001 23.6667C23.3334 23.6667 21.9167 24.25 20.7501 25.4167C19.5834 26.5833 19.0001 28 19.0001 29.6667C19.0001 31.3333 19.5834 32.75 20.7501 33.9167C21.9167 35.0833 23.3334 35.6667 25.0001 35.6667ZM21.1001 21.9333C21.5445 21.6889 22.0167 21.4944 22.5167 21.35C23.0167 21.2055 23.5223 21.1111 24.0334 21.0667L20.6667 14.3333H17.3334L21.1001 21.9333ZM28.9001 21.9333L32.7001 14.3333H29.3334L25.9667 21.0667C26.4779 21.1111 26.9834 21.2055 27.4834 21.35C27.9834 21.4944 28.4556 21.6889 28.9001 21.9333ZM17.5334 34.0667C17.1556 33.4222 16.8612 32.7278 16.6501 31.9833C16.439 31.2389 16.3334 30.4667 16.3334 29.6667C16.3334 28.8667 16.439 28.0944 16.6501 27.35C16.8612 26.6055 17.1556 25.9111 17.5334 25.2667C16.6001 25.5778 15.8334 26.1278 15.2334 26.9167C14.6334 27.7055 14.3334 28.6222 14.3334 29.6667C14.3334 30.7111 14.6334 31.6278 15.2334 32.4167C15.8334 33.2055 16.6001 33.7555 17.5334 34.0667ZM32.4667 34.0667C33.4001 33.7555 34.1667 33.2055 34.7667 32.4167C35.3667 31.6278 35.6667 30.7111 35.6667 29.6667C35.6667 28.6222 35.3667 27.7055 34.7667 26.9167C34.1667 26.1278 33.4001 25.5778 32.4667 25.2667C32.8445 25.9111 33.139 26.6055 33.3501 27.35C33.5612 28.0944 33.6667 28.8667 33.6667 29.6667C33.6667 30.4667 33.5612 31.2389 33.3501 31.9833C33.139 32.7278 32.8445 33.4222 32.4667 34.0667ZM25.0001 38.3333C24.1112 38.3333 23.2612 38.2055 22.4501 37.95C21.639 37.6944 20.889 37.3444 20.2001 36.9C20.0001 36.9444 19.8001 36.9722 19.6001 36.9833C19.4001 36.9944 19.189 37 18.9667 37C16.9445 37 15.2223 36.2889 13.8001 34.8667C12.3779 33.4444 11.6667 31.7222 11.6667 29.7C11.6667 27.7667 12.3112 26.1111 13.6001 24.7333C14.889 23.3555 16.4779 22.5889 18.3667 22.4333L13.0001 11.6667H22.3334L25.0001 17L27.6667 11.6667H37.0001L31.6667 22.3667C33.5556 22.5444 35.139 23.3222 36.4167 24.7C37.6945 26.0778 38.3334 27.7333 38.3334 29.6667C38.3334 31.7111 37.6223 33.4444 36.2001 34.8667C34.7779 36.2889 33.0445 37 31.0001 37C30.8001 37 30.5945 36.9944 30.3834 36.9833C30.1723 36.9722 29.9667 36.9444 29.7667 36.9C29.0779 37.3444 28.3334 37.6944 27.5334 37.95C26.7334 38.2055 25.889 38.3333 25.0001 38.3333ZM25.0001 33L23.9667 30.7L21.6667 29.6667L23.9667 28.6333L25.0001 26.3333L26.0334 28.6333L28.3334 29.6667L26.0334 30.7L25.0001 33Z" fill="#024272"/>
</svg>
