<svg width="50" height="50" viewBox="0 0 50 50" fill="none" xmlns="http://www.w3.org/2000/svg">
<rect width="50" height="50" rx="5" fill="#FEBE10"/>
<g clip-path="url(#clip0_25_11)">
<path d="M24.9999 17C26.4727 17 27.6666 15.8061 27.6666 14.3333C27.6666 12.8606 26.4727 11.6667 24.9999 11.6667C23.5272 11.6667 22.3333 12.8606 22.3333 14.3333C22.3333 15.8061 23.5272 17 24.9999 17Z" fill="#024272"/>
<path d="M34.3334 26.3333V23.6667C32.2801 23.6933 30.2134 22.6667 28.9067 21.2267L27.1867 19.32C26.9601 19.0667 26.6801 18.8667 26.3734 18.72C26.3601 18.72 26.3601 18.7067 26.3467 18.7067H26.3334C25.8667 18.44 25.3334 18.3067 24.7467 18.36C23.3467 18.48 22.3334 19.72 22.3334 21.12V29C22.3334 30.4667 23.5334 31.6667 25.0001 31.6667H31.6667V38.3333H34.3334V31C34.3334 29.5333 33.1334 28.3333 31.6667 28.3333H27.6667V23.7333C29.3867 25.16 32.0001 26.32 34.3334 26.3333ZM26.1067 33C25.5601 34.5467 24.0801 35.6667 22.3334 35.6667C20.1201 35.6667 18.3334 33.88 18.3334 31.6667C18.3334 29.92 19.4534 28.4533 21.0001 27.8933V25.1333C17.9601 25.7467 15.6667 28.44 15.6667 31.6667C15.6667 35.3467 18.6534 38.3333 22.3334 38.3333C25.5601 38.3333 28.2534 36.04 28.8667 33H26.1067Z" fill="#024272"/>
</g>
<defs>
<clipPath id="clip0_25_11">
<rect width="32" height="32" fill="white" transform="translate(9 9)"/>
</clipPath>
</defs>
</svg>
