<svg width="60" height="60" viewBox="0 0 60 60" fill="none" xmlns="http://www.w3.org/2000/svg">
<rect x="-0.000244141" width="60" height="60" rx="5" fill="#FEBE10"/>
<g clip-path="url(#clip0_126_219)">
<path d="M44.8198 20.82L35.1598 11.16C34.4198 10.42 33.3998 10 32.3398 10H17.9998C15.7998 10 13.9998 11.8 13.9998 14V46C13.9998 48.2 15.7998 50 17.9998 50H41.9998C44.1998 50 45.9998 48.2 45.9998 46V23.66C45.9998 22.6 45.5798 21.58 44.8198 20.82ZM33.9998 30C35.0998 30 35.9998 30.9 35.9998 32V38C35.9998 39.1 35.0998 40 33.9998 40H31.9998C31.9998 41.1 31.0998 42 29.9998 42C28.8998 42 27.9998 41.1 27.9998 40H25.9998C24.8998 40 23.9998 39.1 23.9998 38C23.9998 36.9 24.8998 36 25.9998 36H31.9998V34H25.9998C24.8998 34 23.9998 33.1 23.9998 32V26C23.9998 24.9 24.8998 24 25.9998 24H27.9998C27.9998 22.9 28.8998 22 29.9998 22C31.0998 22 31.9998 22.9 31.9998 24H33.9998C35.0998 24 35.9998 24.9 35.9998 26C35.9998 27.1 35.0998 28 33.9998 28H27.9998V30H33.9998Z" fill="white"/>
</g>
<defs>
<clipPath id="clip0_126_219">
<rect width="48" height="48" fill="white" transform="translate(5.99976 6)"/>
</clipPath>
</defs>
</svg>
