<svg width="50" height="50" viewBox="0 0 50 50" fill="none" xmlns="http://www.w3.org/2000/svg">
<rect width="50" height="50" rx="5" fill="#FEBE10"/>
<g clip-path="url(#clip0_31_83)">
<path d="M15.6667 26.5733V30.32C15.6667 31.2933 16.2 32.2 17.0534 32.6667L23.72 36.3067C24.52 36.7467 25.48 36.7467 26.28 36.3067L32.9467 32.6667C33.8 32.2 34.3334 31.2933 34.3334 30.32V26.5733L26.28 30.9733C25.48 31.4133 24.52 31.4133 23.72 30.9733L15.6667 26.5733ZM23.72 13.6933L12.48 19.8267C11.56 20.3333 11.56 21.6667 12.48 22.1733L23.72 28.3067C24.52 28.7467 25.48 28.7467 26.28 28.3067L37 22.4533V30.3333C37 31.0667 37.6 31.6667 38.3334 31.6667C39.0667 31.6667 39.6667 31.0667 39.6667 30.3333V21.7867C39.6667 21.2933 39.4 20.8533 38.9734 20.6133L26.28 13.6933C25.48 13.2667 24.52 13.2667 23.72 13.6933Z" fill="#024272"/>
</g>
<defs>
<clipPath id="clip0_31_83">
<rect width="32" height="32" fill="white" transform="translate(9 9)"/>
</clipPath>
</defs>
</svg>
