<svg width="50" height="50" viewBox="0 0 50 50" fill="none" xmlns="http://www.w3.org/2000/svg">
<rect width="50" height="50" rx="5" fill="#FEBE10"/>
<g clip-path="url(#clip0_30_57)">
<path d="M30.3334 14.3333C30.3334 12.8533 31.5201 11.6667 33.0001 11.6667C34.4801 11.6667 35.6667 12.8533 35.6667 14.3333C35.6667 15.8133 34.4801 17 33.0001 17C31.5201 17 30.3334 15.8133 30.3334 14.3333ZM35.6667 38.3333V30.3333H39.0001L35.6134 20.16C35.2401 19.0667 34.2267 18.3333 33.0801 18.3333H32.9201C31.7734 18.3333 30.7467 19.0667 30.3867 20.16L29.2401 23.6C30.6801 24.4 31.6667 25.9067 31.6667 27.6667V38.3333H35.6667ZM25.6667 24.3333C26.7734 24.3333 27.6667 23.44 27.6667 22.3333C27.6667 21.2267 26.7734 20.3333 25.6667 20.3333C24.5601 20.3333 23.6667 21.2267 23.6667 22.3333C23.6667 23.44 24.5601 24.3333 25.6667 24.3333ZM16.3334 17C17.8134 17 19.0001 15.8133 19.0001 14.3333C19.0001 12.8533 17.8134 11.6667 16.3334 11.6667C14.8534 11.6667 13.6667 12.8533 13.6667 14.3333C13.6667 15.8133 14.8534 17 16.3334 17ZM19.0001 38.3333V29H21.0001V21C21.0001 19.5333 19.8001 18.3333 18.3334 18.3333H14.3334C12.8667 18.3333 11.6667 19.5333 11.6667 21V29H13.6667V38.3333H19.0001ZM27.6667 38.3333V33H29.0001V27.6667C29.0001 26.5733 28.0934 25.6667 27.0001 25.6667H24.3334C23.2401 25.6667 22.3334 26.5733 22.3334 27.6667V33H23.6667V38.3333H27.6667Z" fill="#024272"/>
</g>
<defs>
<clipPath id="clip0_30_57">
<rect width="32" height="32" fill="white" transform="translate(9 9)"/>
</clipPath>
</defs>
</svg>
