<svg width="60" height="60" viewBox="0 0 60 60" fill="none" xmlns="http://www.w3.org/2000/svg">
<rect x="-0.000244141" width="60" height="60" rx="5" fill="#FEBE10"/>
<g clip-path="url(#clip0_126_199)">
<path d="M35.1798 11.18C34.4198 10.42 33.3998 10 32.3398 10H17.9998C15.7998 10 13.9998 11.8 13.9998 14V46C13.9998 48.2 15.7798 50 17.9798 50H41.9998C44.1998 50 45.9998 48.2 45.9998 46V23.66C45.9998 22.6 45.5798 21.58 44.8198 20.84L35.1798 11.18ZM35.9998 42H23.9998C22.8998 42 21.9998 41.1 21.9998 40C21.9998 38.9 22.8998 38 23.9998 38H35.9998C37.0998 38 37.9998 38.9 37.9998 40C37.9998 41.1 37.0998 42 35.9998 42ZM35.9998 34H23.9998C22.8998 34 21.9998 33.1 21.9998 32C21.9998 30.9 22.8998 30 23.9998 30H35.9998C37.0998 30 37.9998 30.9 37.9998 32C37.9998 33.1 37.0998 34 35.9998 34ZM31.9998 22V13L42.9998 24H33.9998C32.8998 24 31.9998 23.1 31.9998 22Z" fill="white"/>
</g>
<defs>
<clipPath id="clip0_126_199">
<rect width="48" height="48" fill="white" transform="translate(5.99976 6)"/>
</clipPath>
</defs>
</svg>
