<svg width="50" height="50" viewBox="0 0 50 50" fill="none" xmlns="http://www.w3.org/2000/svg">
<rect width="50" height="50" rx="5" fill="#FEBE10"/>
<g clip-path="url(#clip0_351_363)">
<path d="M25.0001 11.6667C17.6401 11.6667 11.6667 17.64 11.6667 25C11.6667 32.36 17.6401 38.3333 25.0001 38.3333C32.3601 38.3333 38.3334 32.36 38.3334 25C38.3334 17.64 32.3601 11.6667 25.0001 11.6667ZM25.0001 35.6667C19.1201 35.6667 14.3334 30.88 14.3334 25C14.3334 19.12 19.1201 14.3333 25.0001 14.3333C30.8801 14.3333 35.6667 19.12 35.6667 25C35.6667 30.88 30.8801 35.6667 25.0001 35.6667ZM26.1867 23.8C23.8134 23.0133 22.6667 22.52 22.6667 21.2667C22.6667 19.9067 24.1467 19.4133 25.0801 19.4133C26.8267 19.4133 27.4667 20.7333 27.6134 21.2L29.7201 20.3067C29.5201 19.72 28.6267 17.76 26.1734 17.3333V15.6667H23.8401V17.3467C20.3734 18.0933 20.3467 21.1467 20.3467 21.2933C20.3467 24.32 23.3467 25.1733 24.8134 25.7067C26.9201 26.4533 27.8534 27.1333 27.8534 28.4133C27.8534 29.92 26.4534 30.56 25.2134 30.56C22.7867 30.56 22.0934 28.0667 22.0134 27.7733L19.8001 28.6667C20.6401 31.5867 22.8401 32.3733 23.8267 32.6133V34.3333H26.1601V32.68C26.8534 32.56 30.1867 31.8933 30.1867 28.3867C30.2001 26.5333 29.3867 24.9067 26.1867 23.8Z" fill="#024272"/>
</g>
<defs>
<clipPath id="clip0_351_363">
<rect width="32" height="32" fill="white" transform="translate(9 9)"/>
</clipPath>
</defs>
</svg>
