<svg width="60" height="60" viewBox="0 0 60 60" fill="none" xmlns="http://www.w3.org/2000/svg">
<rect width="60" height="60" rx="5" fill="#FEBE10"/>
<path d="M24 30V20L30 16L36 20V30H32V24H28V30H24ZM30 42.7C34.0667 38.9667 37.0833 35.5747 39.05 32.524C41.0167 29.4747 42 26.7667 42 24.4C42 20.7667 40.8413 17.7913 38.524 15.474C36.208 13.158 33.3667 12 30 12C26.6333 12 23.7913 13.158 21.474 15.474C19.158 17.7913 18 20.7667 18 24.4C18 26.7667 18.9833 29.4747 20.95 32.524C22.9167 35.5747 25.9333 38.9667 30 42.7ZM30 48C24.6333 43.4333 20.6253 39.1913 17.976 35.274C15.3253 31.358 14 27.7333 14 24.4C14 19.4 15.6087 15.4167 18.826 12.45C22.042 9.48333 25.7667 8 30 8C34.2333 8 37.958 9.48333 41.174 12.45C44.3913 15.4167 46 19.4 46 24.4C46 27.7333 44.6753 31.358 42.026 35.274C39.3753 39.1913 35.3667 43.4333 30 48Z" fill="white"/>
</svg>
